<svg xmlns="http://www.w3.org/2000/svg" viewBox="0 0 56 36" fill="currentColor">
    <rect x="46" y="4" width="2" height="1"/>
    <rect x="52" y="4" width="1" height="1"/>
    <rect x="45" y="5" width="3" height="1"/>
    <rect x="50" y="5" width="4" height="1"/>
    <rect x="9" y="6" width="6" height="1"/>
    <rect x="44" y="6" width="4" height="1"/>
    <rect x="50" y="6" width="4" height="1"/>
    <rect x="6" y="7" width="12" height="1"/>
    <rect x="43" y="7" width="2" height="1"/>
    <rect x="47" y="7" width="4" height="1"/>
    <rect x="52" y="7" width="2" height="1"/>
    <rect x="4" y="8" width="16" height="1"/>
    <rect x="42" y="8" width="2" height="1"/>
    <rect x="46" y="8" width="7" height="1"/>
    <rect x="5" y="9" width="5" height="1"/>
    <rect x="14" y="9" width="8" height="1"/>
    <rect x="42" y="9" width="2" height="1"/>
    <rect x="45" y="9" width="8" height="1"/>
    <rect x="17" y="10" width="6" height="1"/>
    <rect x="29" y="10" width="2" height="1"/>
    <rect x="41" y="10" width="13" height="1"/>
    <rect x="19" y="11" width="6" height="1"/>
    <rect x="26" y="11" width="9" height="1"/>
    <rect x="40" y="11" width="7" height="1"/>
    <rect x="49" y="11" width="6" height="1"/>
    <rect x="20" y="12" width="17" height="1"/>
    <rect x="39" y="12" width="8" height="1"/>
    <rect x="50" y="12" width="2" height="1"/>
    <rect x="54" y="12" width="1" height="1"/>
    <rect x="22" y="13" width="25" height="1"/>
    <rect x="49" y="13" width="3" height="1"/>
    <rect x="54" y="13" width="2" height="1"/>
    <rect x="22" y="14" width="30" height="1"/>
    <rect x="54" y="14" width="2" height="1"/>
    <rect x="21" y="15" width="34" height="1"/>
    <rect x="20" y="16" width="35" height="1"/>
    <rect x="17" y="17" width="37" height="1"/>
    <rect x="16" y="18" width="34" height="1"/>
    <rect x="15" y="19" width="36" height="1"/>
    <rect x="14" y="20" width="39" height="1"/>
    <rect x="12" y="21" width="42" height="1"/>
    <rect x="11" y="22" width="44" height="1"/>
    <rect x="11" y="23" width="17" height="1"/>
    <rect x="41" y="23" width="14" height="1"/>
    <rect x="12" y="24" width="3" height="1"/>
    <rect x="19" y="24" width="7" height="1"/>
    <rect x="43" y="24" width="8" height="1"/>
    <rect x="19" y="25" width="6" height="1"/>
    <rect x="44" y="25" width="8" height="1"/>
    <rect x="18" y="26" width="5" height="1"/>
    <rect x="46" y="26" width="7" height="1"/>
    <rect x="18" y="27" width="4" height="1"/>
    <rect x="48" y="27" width="5" height="1"/>
    <rect x="18" y="28" width="3" height="1"/>
    <rect x="50" y="28" width="3" height="1"/>
</svg>
